# xmcd CD database file generated by OrangeCD 5.9
#
# Track frame offsets:
#	150
#	12225
#	24975
#	39750
#	64350
#	77475
#	93075
#	116025
#	130875
#	141975
#	151725
#	166950
#	184650
#	203475
#	223800
#	237075
#
# Disc length: 3381 seconds
#
# Revision: 1
# Processed by: cddbd v1.5.1PL0 Copyright (c) Steve Scherf et al.
# Submitted via: OrangeCD 5.9
#
DISCID=c80d3310
DTITLE=Various Artist - Dangerous Curves: The Art of The Guitar
DYEAR=1900
DGENRE=Blues Guitar
TTITLE0=Chuck Berry - Johnny B. Goode
TTITLE1=Memphis Minnie - Bumble Bee Blues
TTITLE2=Django Reinhardt - Minor Swing
TTITLE3=B.B. King - The Thrill Is Gone
TTITLE4=Jimmie Rodgers - Blue Yodel #10
TTITLE5=Wes Montgomery - I've Grown Accustomed To Her Face
TTITLE6=Muddy Waters - Who's Gonna Be Your Sweet Man When I'm Gone
TTITLE7=Jimi Hendrix - Little Wing
TTITLE8=Eric Clapton and The Yardbirds with Jimmy Page - Snake Drive
TTITLE9=Doc Watson - Gonna Lay Down My Old Guitar
TTITLE10=John Fahey - Sunflower River Blues
TTITLE11=John McLaughlin - Extrapolation
TTITLE12=Gerardo Nunez - Tabaco y Oro
TTITLE13=Ali Farka Toure - Allah Uya
TTITLE14=Luiz Bonfa - Manha DeCarnaval
TTITLE15=Ani Difranco - Overlap
EXTD=Dangerous Curves The Art of The Guitar
EXTT0=
EXTT1=
EXTT2=
EXTT3=
EXTT4=
EXTT5=
EXTT6=
EXTT7=
EXTT8=
EXTT9=
EXTT10=
EXTT11=
EXTT12=
EXTT13=
EXTT14=
EXTT15=
PLAYORDER=
